{
    "asset" : {
        "generator" : "Khronos glTF Blender I/O v3.2.40",
        "version" : "2.0"
    },
    "scene" : 0,
    "scenes" : [
        {
            "name" : "Scene",
            "nodes" : [
                1
            ]
        }
    ],
    "nodes" : [
        {
            "mesh" : 0,
            "name" : "LOD3spShape",
            "scale" : [
                0.4953802227973938,
                0.4953802227973938,
                0.4953802227973938
            ]
        },
        {
            "children" : [
                0
            ],
            "name" : "Node_0",
            "scale" : [
                0.002301009139046073,
                0.002301009139046073,
                0.002301009139046073
            ]
        }
    ],
    "materials" : [
        {
            "name" : "blinn3-fx",
            "pbrMetallicRoughness" : {
                "baseColorTexture" : {
                    "index" : 0
                },
                "metallicFactor" : 0
            }
        }
    ],
    "meshes" : [
        {
            "name" : "LOD3spShape",
            "primitives" : [
                {
                    "attributes" : {
                        "POSITION" : 0,
                        "NORMAL" : 1,
                        "TEXCOORD_0" : 2
                    },
                    "indices" : 3,
                    "material" : 0
                }
            ]
        }
    ],
    "textures" : [
        {
            "sampler" : 0,
            "source" : 0
        }
    ],
    "images" : [
        {
            "mimeType" : "image/png",
            "name" : "DuckCM",
            "uri" : "DuckCM.png"
        }
    ],
    "accessors" : [
        {
            "bufferView" : 0,
            "componentType" : 5126,
            "count" : 2414,
            "max" : [
                96.17989349365234,
                164.0093994140625,
                53.94888687133789
            ],
            "min" : [
                -69.29850006103516,
                9.929369926452637,
                -61.32819747924805
            ],
            "type" : "VEC3"
        },
        {
            "bufferView" : 1,
            "componentType" : 5126,
            "count" : 2414,
            "type" : "VEC3"
        },
        {
            "bufferView" : 2,
            "componentType" : 5126,
            "count" : 2414,
            "type" : "VEC2"
        },
        {
            "bufferView" : 3,
            "componentType" : 5123,
            "count" : 12636,
            "type" : "SCALAR"
        }
    ],
    "bufferViews" : [
        {
            "buffer" : 0,
            "byteLength" : 28968,
            "byteOffset" : 0
        },
        {
            "buffer" : 0,
            "byteLength" : 28968,
            "byteOffset" : 28968
        },
        {
            "buffer" : 0,
            "byteLength" : 19312,
            "byteOffset" : 57936
        },
        {
            "buffer" : 0,
            "byteLength" : 25272,
            "byteOffset" : 77248
        }
    ],
    "samplers" : [
        {
            "magFilter" : 9729,
            "minFilter" : 9987
        }
    ],
    "buffers" : [
        {
            "byteLength" : 102520,
            "uri" : "Duck.bin"
        }
    ]
}
